<?xml version="1.0" standalone="no"?>
<!DOCTYPE svg PUBLIC "-//W3C//DTD SVG 20010904//EN" "http://www.w3.org/TR/2001/REC-SVG-20010904/DTD/svg10.dtd">
<svg version="1.0" xmlns="http://www.w3.org/2000/svg" width="1060.000000pt" height="1060.000000pt"
  viewBox="0 0 1060.000000 1060.000000" preserveAspectRatio="xMidYMid meet">
  <metadata>
    Created by potrace 1.14, written by Peter Selinger 2001-2017
  </metadata>
  <g transform="translate(0.000000,1060.000000) scale(0.100000,-0.100000)" fill="#000000" stroke="none">
    <path d="M8735 8625 c-56 -25 -134 -29 -191 -10 -52 17 -52 17 -145 -9 -51
-15 -116 -40 -144 -56 -45 -25 -57 -28 -106 -23 l-56 5 -27 -46 -27 -46 -54 1
c-70 3 -137 -36 -175 -101 -16 -28 -44 -55 -76 -75 -124 -75 -193 -131 -218
-176 -25 -45 -196 -219 -215 -219 -10 0 -88 -122 -117 -182 -20 -43 -35 -46
-81 -18 -22 13 -35 31 -43 59 -11 42 -19 50 -110 106 -82 52 -170 91 -216 98
-54 9 -130 43 -177 80 -22 17 -59 34 -85 38 -26 5 -58 18 -72 29 -46 36 -145
88 -190 100 -25 7 -79 28 -120 48 -63 31 -87 37 -145 38 -58 1 -84 8 -150 39
-71 33 -86 36 -133 31 -38 -5 -67 -1 -102 11 -47 17 -52 17 -96 0 l-48 -17
-40 26 c-36 24 -46 26 -105 21 -36 -3 -101 -13 -145 -22 -64 -13 -96 -14 -179
-6 -95 9 -103 9 -156 -14 -31 -12 -78 -30 -106 -38 -27 -8 -68 -23 -89 -32
-23 -10 -80 -19 -134 -22 -88 -6 -96 -8 -134 -40 -29 -24 -50 -33 -76 -33 -58
-1 -145 -25 -188 -53 -21 -14 -61 -28 -89 -32 -72 -10 -139 -47 -172 -97 -22
-32 -37 -44 -66 -50 -61 -13 -154 -65 -173 -97 -24 -40 -120 -91 -172 -91 -34
0 -44 5 -62 30 -11 16 -26 48 -34 72 -27 90 -118 209 -187 244 -27 13 -53 33
-59 43 -5 11 -53 58 -105 105 -90 81 -97 86 -140 86 -62 0 -140 40 -167 86
-29 49 -48 57 -104 43 l-46 -12 -38 42 c-32 35 -43 41 -79 41 -22 0 -89 7
-148 16 -84 12 -117 21 -147 42 -35 24 -47 27 -120 25 -108 -2 -157 -3 -246
-1 -58 1 -93 -5 -155 -27 -44 -15 -109 -31 -145 -36 -36 -5 -82 -18 -102 -29
-49 -25 -146 -50 -196 -50 -44 0 -63 -14 -87 -61 -20 -37 -101 -79 -155 -79
-57 0 -77 -14 -91 -60 -17 -55 -97 -120 -149 -120 -46 0 -70 -18 -143 -107
-62 -76 -117 -173 -117 -207 0 -14 -28 -49 -75 -96 -58 -58 -79 -86 -90 -122
-7 -26 -25 -67 -39 -91 -17 -29 -26 -59 -26 -88 0 -91 -18 -161 -49 -193 -41
-43 -67 -136 -52 -186 6 -21 11 -66 11 -101 0 -53 -5 -71 -26 -103 -26 -38
-26 -39 -16 -147 9 -100 13 -112 40 -144 43 -48 53 -130 26 -221 -4 -16 3 -32
28 -60 39 -44 67 -110 99 -234 13 -49 33 -99 48 -118 14 -19 49 -77 77 -130
46 -88 55 -99 100 -122 40 -20 51 -32 62 -65 19 -57 97 -134 145 -142 29 -4
46 -16 77 -53 27 -32 52 -50 81 -59 24 -7 55 -28 74 -48 51 -56 218 -152 264
-153 36 0 241 -68 271 -90 21 -15 48 -20 116 -22 86 -3 89 -4 93 -28 1 -14 -7
-43 -20 -66 -21 -39 -21 -46 -11 -115 37 -231 36 -223 19 -273 -16 -45 -15
-50 3 -85 10 -21 30 -88 44 -150 14 -62 34 -127 44 -144 11 -18 27 -63 36
-102 10 -38 22 -86 27 -106 5 -20 9 -50 9 -66 0 -37 65 -139 108 -171 25 -18
33 -32 38 -70 5 -43 14 -56 66 -107 33 -33 78 -86 101 -120 22 -33 53 -76 69
-96 16 -20 31 -52 35 -73 4 -29 18 -47 62 -84 31 -26 95 -82 143 -124 48 -43
110 -94 137 -113 27 -20 61 -55 74 -78 14 -24 42 -52 65 -65 22 -12 56 -42 76
-66 28 -34 45 -46 76 -51 21 -4 59 -21 82 -39 24 -18 66 -45 94 -59 28 -14 58
-37 68 -51 25 -39 126 -86 184 -86 38 0 53 -5 71 -24 24 -26 51 -39 116 -55
29 -8 46 -21 63 -46 21 -34 25 -35 82 -35 64 0 106 -17 230 -95 84 -52 155
-76 219 -74 40 1 70 -4 103 -20 42 -19 51 -20 92 -9 46 12 46 12 84 -25 41
-40 63 -45 102 -22 36 21 55 18 100 -11 37 -25 41 -25 89 -13 l50 12 40 -36
c23 -20 43 -37 46 -37 3 0 23 9 45 20 23 12 59 20 87 20 58 0 171 -23 204 -41
17 -9 72 -13 184 -14 149 -2 162 0 195 20 34 21 42 22 185 16 179 -8 266 8
398 74 32 16 42 17 70 7 48 -17 73 -15 120 12 23 13 62 27 87 30 24 4 58 15
75 26 16 10 78 35 137 54 86 29 115 35 152 30 39 -6 52 -3 83 18 23 15 58 27
89 30 39 4 69 16 115 46 104 67 202 119 239 127 35 8 140 76 174 114 15 16 31
21 70 21 62 0 71 5 91 53 9 21 23 41 33 44 94 32 177 78 219 120 26 26 63 56
81 65 18 9 42 33 53 53 12 19 59 63 105 96 63 46 86 69 95 96 15 48 58 94 148
160 148 110 211 191 223 289 4 24 20 61 41 90 19 27 44 68 56 91 12 24 32 50
46 59 14 9 39 40 56 70 27 48 30 60 24 106 -7 58 15 122 61 184 19 24 24 44
24 86 0 46 5 61 30 93 35 45 36 53 10 105 l-20 40 35 39 c37 41 42 59 24 93
-7 13 -13 95 -15 207 -2 102 -4 197 -6 211 -4 34 31 38 78 10 43 -27 106 -22
196 16 43 18 68 23 93 18 57 -10 248 57 284 100 7 8 38 25 69 36 32 12 80 34
107 50 28 15 67 33 87 40 22 6 52 28 72 51 18 22 56 50 84 64 41 20 52 31 62
62 16 48 93 129 147 153 41 18 46 25 58 87 4 18 34 63 74 110 39 44 74 95 81
118 7 22 24 56 39 75 94 121 127 201 118 282 -6 45 -4 52 28 86 46 52 68 149
42 194 -13 23 -17 54 -17 140 0 100 2 113 26 154 25 43 26 47 14 106 -6 33
-22 77 -35 97 -26 39 -34 117 -20 202 6 39 4 54 -16 90 -13 24 -36 58 -52 75
-15 17 -34 53 -41 81 -7 27 -30 73 -50 102 -20 29 -36 63 -36 75 0 11 -11 50
-24 86 -17 49 -32 71 -57 88 -19 13 -87 73 -151 134 -87 81 -119 118 -123 142
-12 59 -16 65 -64 101 -36 26 -59 35 -88 35 -46 0 -65 13 -87 60 -10 21 -36
48 -67 68 -46 30 -55 33 -102 27 -49 -6 -54 -5 -82 25 -41 43 -113 78 -182 89
-32 5 -84 18 -115 30 -48 18 -80 21 -198 21 -102 0 -150 4 -177 15 -42 18 -48
18 -88 0z m280 -441 c167 -28 371 -109 515 -202 309 -201 532 -531 599 -887
36 -190 39 -276 16 -436 -47 -335 -179 -596 -416 -824 -189 -182 -419 -302
-677 -354 -174 -36 -361 -28 -245 9 166 54 368 204 482 359 145 196 212 402
212 651 0 354 -162 672 -445 871 -405 287 -965 240 -1310 -110 l-59 -60 -43
36 c-33 28 -44 46 -50 76 -4 26 -17 50 -36 68 l-30 27 29 54 c49 89 56 100
125 194 196 266 522 468 853 527 111 20 367 21 480 1z m-6908 -25 c373 -81
681 -290 880 -599 l43 -65 -35 -30 c-19 -16 -43 -51 -54 -77 -11 -26 -30 -52
-43 -59 -13 -6 -32 -20 -43 -30 -20 -18 -22 -17 -90 47 -137 130 -304 222
-481 266 -132 33 -351 31 -484 -4 -635 -169 -964 -874 -690 -1483 99 -220 305
-426 525 -525 38 -17 71 -33 73 -35 3 -2 -10 -23 -27 -47 -17 -23 -31 -53 -31
-66 0 -18 -4 -22 -17 -18 -10 3 -47 10 -83 16 -151 27 -336 103 -482 199 -289
189 -501 492 -589 841 -17 69 -39 245 -39 317 0 77 11 166 35 288 46 231 184
492 354 669 223 232 556 393 871 420 100 9 312 -4 407 -25z m3478 -399 c44 -6
87 -13 95 -14 8 -2 35 -6 60 -10 213 -36 494 -135 725 -255 387 -201 701 -477
946 -831 67 -96 102 -160 89 -160 -6 0 -8 -4 -5 -10 7 -12 0 -13 -85 -11 -36
2 -90 8 -120 16 -171 43 -461 45 -630 6 -501 -116 -898 -487 -1056 -987 -20
-63 -38 -114 -42 -114 -3 0 -35 12 -71 27 -60 24 -80 27 -231 31 -128 3 -180
0 -234 -12 -38 -9 -70 -15 -71 -14 -2 2 -19 53 -39 113 -47 139 -98 246 -175
360 -204 305 -544 553 -874 639 -153 40 -245 49 -421 43 -160 -5 -278 -26
-403 -71 l-41 -14 2 31 c6 62 164 274 341 456 288 297 597 499 975 637 52 20
106 39 120 44 93 35 285 74 530 109 87 12 514 6 615 -9z m-3430 -271 c193 -23
376 -107 513 -234 l76 -72 -95 -94 c-53 -52 -125 -117 -160 -145 -49 -39 -68
-62 -79 -95 -12 -33 -25 -49 -60 -69 -45 -26 -48 -32 -66 -125 -3 -20 -45 -66
-143 -160 -56 -53 -101 -135 -101 -185 0 -46 -14 -71 -84 -143 -63 -65 -66
-70 -66 -116 0 -39 -6 -56 -30 -86 -16 -21 -35 -56 -41 -79 -21 -82 -41 -136
-58 -158 l-18 -22 -62 27 c-246 106 -439 328 -516 593 -32 109 -44 284 -26
389 76 447 438 764 896 784 17 0 71 -4 120 -10z m6538 -99 c166 -42 322 -134
438 -258 83 -87 119 -140 169 -244 64 -134 83 -220 83 -383 1 -154 -11 -218
-63 -353 -79 -207 -283 -413 -493 -500 -42 -18 -82 -32 -89 -32 -24 0 -77 68
-83 107 -18 111 -35 157 -71 194 -35 36 -36 40 -30 86 5 42 2 55 -25 101 -17
30 -45 62 -64 73 -33 20 -129 159 -171 249 -11 25 -32 59 -46 75 -14 17 -37
53 -51 80 -14 28 -39 64 -57 80 -17 17 -51 70 -76 119 -24 48 -63 109 -86 135
-24 26 -50 61 -59 78 -9 16 -36 41 -60 54 -55 30 -71 68 -43 100 65 74 244
181 372 224 150 49 350 55 505 15z m-4839 -1071 c132 -21 159 -34 374 -174
213 -138 359 -329 451 -588 54 -154 74 -273 74 -447 1 -287 -71 -525 -228
-759 -246 -367 -689 -582 -1110 -540 -157 15 -218 34 -333 102 -96 57 -124 81
-233 206 -22 24 -92 192 -115 271 -32 114 -62 228 -68 260 -75 379 -74 683 4
1080 35 181 201 374 415 483 264 134 445 159 769 106z m3386 -69 c204 -44 291
-68 312 -86 11 -11 38 -41 59 -69 20 -27 54 -68 74 -90 21 -22 44 -53 51 -70
23 -51 52 -77 127 -114 93 -46 113 -76 122 -178 11 -130 -5 -170 -95 -236
l-25 -18 0 -227 c0 -135 -6 -261 -14 -312 -18 -120 -47 -262 -70 -342 -6 -21
-15 -53 -20 -70 -54 -196 -171 -451 -240 -526 -72 -78 -276 -147 -476 -160
-558 -38 -1012 267 -1199 806 -55 159 -70 253 -70 437 0 184 15 279 70 437 44
127 76 190 153 304 158 236 378 405 635 489 60 19 138 39 175 45 103 14 322 4
431 -20z m-5279 -950 c23 -20 24 -20 5 -35 -11 -8 -34 -18 -53 -21 -41 -8 -93
2 -119 21 -19 15 -18 15 5 35 17 15 38 20 81 20 43 0 64 -5 81 -20z m6696 5
c13 -9 20 -22 17 -30 -19 -49 -194 -40 -194 10 0 33 136 49 177 20z m-2472
-1520 c147 -109 331 -201 503 -251 80 -23 138 -33 369 -63 57 -7 88 -16 101
-29 19 -19 18 -21 -87 -124 -237 -233 -528 -424 -826 -542 -38 -16 -79 -32
-90 -37 -137 -55 -423 -122 -641 -148 -114 -14 -438 -14 -541 -1 -137 18 -299
47 -383 69 -106 28 -260 77 -305 97 -16 7 -59 25 -95 40 -286 117 -556 301
-810 551 -125 123 -152 155 -140 163 8 5 11 10 5 10 -5 0 -2 5 8 11 11 6 96
12 200 14 194 3 302 18 452 61 159 45 354 138 460 220 25 18 45 31 45 27 0 -3
-12 -67 -27 -142 -35 -177 -40 -432 -9 -521 64 -189 191 -277 471 -326 116
-20 572 -31 665 -15 284 47 365 77 463 170 119 112 158 292 122 551 -14 98
-49 289 -62 335 -3 14 9 6 38 -24 24 -24 76 -67 114 -96z" />
    <path d="M3368 5805 c-98 -32 -207 -139 -277 -275 -82 -159 -121 -333 -121
-545 0 -391 150 -709 386 -817 39 -18 67 -23 134 -23 105 0 172 28 257 107
392 368 332 1313 -98 1534 -45 23 -69 28 -144 31 -60 2 -106 -2 -137 -12z
m412 -320 c65 -33 16 -85 -80 -85 -94 0 -144 51 -82 84 35 20 125 20 162 1z" />
    <path d="M7002 5785 c-90 -29 -140 -63 -193 -129 -210 -263 -265 -736 -129
-1108 64 -176 174 -312 297 -371 60 -28 78 -32 153 -32 115 0 177 29 274 128
106 107 179 258 222 459 26 116 25 389 0 508 -46 215 -139 394 -248 481 -57
45 -185 89 -256 89 -26 -1 -80 -12 -120 -25z m430 -313 l22 -22 -22 -22 c-19
-20 -33 -23 -97 -23 -63 0 -78 3 -96 22 -19 19 -21 24 -9 39 23 26 51 34 118
31 49 -2 67 -8 84 -25z" />
  </g>
</svg>